M48
;DRILL file {KiCad 4.0.7-e2-6376~58~ubuntu16.04.1} date Fri Sep 22 09:12:59 2017
;FORMAT={-:-/ absolute / metric / decimal}
FMAT,2
METRIC,TZ
T1C0.500
T2C0.762
T3C0.800
T4C1.000
%
G90
G05
M71
T1
X30.45Y-28.5
X35.75Y-28.5
T2
X11.71Y-28.5
X11.71Y-31.04
X14.25Y-28.5
X14.25Y-31.04
X16.79Y-28.5
X16.79Y-31.04
X42.21Y-28.
X44.75Y-28.
T3
X4.11Y-8.1
X4.11Y-23.5
X6.25Y-42.5
X6.25Y-48.5
X6.25Y-56.5
X6.25Y-62.5
X6.65Y-8.1
X6.65Y-23.5
X9.19Y-8.1
X9.19Y-23.5
X11.73Y-8.1
X11.73Y-23.5
X14.27Y-8.1
X14.27Y-23.5
X16.81Y-8.1
X16.81Y-23.5
X19.35Y-8.1
X19.35Y-23.5
X21.89Y-8.1
X21.89Y-23.5
X24.25Y-33.
X24.25Y-35.5
X24.43Y-8.1
X24.43Y-23.5
X26.97Y-8.1
X26.97Y-23.5
X29.51Y-8.1
X29.51Y-23.5
X30.25Y-33.
X30.25Y-35.5
X31.4Y-54.09
X31.4Y-56.63
X31.4Y-59.17
X31.4Y-61.71
X31.4Y-64.25
X31.4Y-66.79
X31.4Y-69.33
X31.4Y-71.87
X31.4Y-74.41
X32.05Y-8.1
X32.05Y-23.5
X34.59Y-8.1
X34.59Y-23.5
X35.75Y-33.
X35.75Y-35.5
X37.13Y-8.1
X37.13Y-23.5
X39.67Y-8.1
X39.67Y-23.5
X42.21Y-8.1
X42.21Y-23.5
X44.75Y-8.1
X44.75Y-23.5
X47.1Y-54.09
X47.1Y-56.63
X47.1Y-59.17
X47.1Y-61.71
X47.1Y-64.25
X47.1Y-66.79
X47.1Y-69.33
X47.1Y-71.87
X47.1Y-74.41
X47.29Y-8.1
X47.29Y-23.5
X47.5Y-34.84
X47.5Y-45.
X49.83Y-8.1
X49.83Y-23.5
X52.37Y-8.1
X52.37Y-23.5
X69.75Y-6.99
X69.75Y-9.53
X69.75Y-12.07
X69.75Y-14.61
X69.75Y-17.15
X69.75Y-19.69
X69.75Y-22.23
X69.75Y-30.88
X69.75Y-33.42
X69.75Y-35.96
X69.75Y-38.5
X69.75Y-41.04
X69.75Y-43.58
X69.75Y-46.12
X69.75Y-54.77
X69.75Y-57.31
X69.75Y-59.85
X69.75Y-62.39
X69.75Y-64.93
X69.75Y-67.47
X69.75Y-70.01
X74.75Y-5.72
X74.75Y-8.26
X74.75Y-10.8
X74.75Y-13.34
X74.75Y-15.88
X74.75Y-18.42
X74.75Y-20.96
X74.75Y-23.5
X74.75Y-29.61
X74.75Y-32.15
X74.75Y-34.69
X74.75Y-37.23
X74.75Y-39.77
X74.75Y-42.31
X74.75Y-44.85
X74.75Y-47.39
X74.75Y-53.5
X74.75Y-56.04
X74.75Y-58.58
X74.75Y-61.12
X74.75Y-63.66
X74.75Y-66.2
X74.75Y-68.74
X74.75Y-71.28
X83.25Y-35.5
X83.25Y-41.5
X84.25Y-11.5
X84.25Y-17.5
X84.25Y-59.5
X84.25Y-65.5
X101.75Y-35.5
X101.75Y-41.5
T4
X26.5Y-50.75
X47.5Y-30.75
X50.75Y-26.
X51.75Y-54.
X59.25Y-30.75
X59.25Y-35.
X59.25Y-42.
X59.25Y-57.5
X59.25Y-66.
X62.Y-55.5
X63.25Y-26.
X63.5Y-51.5
X77.Y-15.
X77.Y-37.25
X77.Y-40.
X77.Y-62.5
X78.5Y-48.5
X78.5Y-51.25
T0
M30
