G04 #@! TF.FileFunction,Copper,L2,Bot,Signal*
%FSLAX46Y46*%
G04 Gerber Fmt 4.6, Leading zero omitted, Abs format (unit mm)*
G04 Created by KiCad (PCBNEW 4.0.7-e2-6376~58~ubuntu16.04.1) date Thu Sep 21 21:37:59 2017*
%MOMM*%
%LPD*%
G01*
G04 APERTURE LIST*
%ADD10C,0.100000*%
%ADD11C,1.400000*%
%ADD12R,1.600000X1.600000*%
%ADD13C,1.600000*%
%ADD14O,3.000000X1.800000*%
%ADD15O,4.000000X4.000000*%
%ADD16C,1.524000*%
%ADD17O,1.600000X1.600000*%
%ADD18O,1.200000X2.000000*%
%ADD19C,0.800000*%
%ADD20C,1.500000*%
%ADD21C,0.250000*%
%ADD22C,3.000000*%
%ADD23C,0.400000*%
G04 APERTURE END LIST*
D10*
D11*
X74750000Y-23500000D03*
X69750000Y-22230000D03*
X74750000Y-20960000D03*
X69750000Y-19690000D03*
X74750000Y-18420000D03*
X69750000Y-17150000D03*
X74750000Y-15880000D03*
X69750000Y-14610000D03*
X74750000Y-13340000D03*
X69750000Y-12070000D03*
X74750000Y-10800000D03*
X69750000Y-9530000D03*
X74750000Y-8260000D03*
X69750000Y-6990000D03*
X74750000Y-5720000D03*
D12*
X30250000Y-33000000D03*
D13*
X30250000Y-35500000D03*
D12*
X35750000Y-33000000D03*
D13*
X35750000Y-35500000D03*
D12*
X24250000Y-35500000D03*
D13*
X24250000Y-33000000D03*
D14*
X31400000Y-74410000D03*
X47100000Y-74410000D03*
X31400000Y-71870000D03*
X47100000Y-71870000D03*
X31400000Y-69330000D03*
X47100000Y-69330000D03*
X31400000Y-66790000D03*
X47100000Y-66790000D03*
X31400000Y-64250000D03*
X47100000Y-64250000D03*
X31400000Y-61710000D03*
X47100000Y-61710000D03*
X31400000Y-59170000D03*
X47100000Y-59170000D03*
X31400000Y-56630000D03*
X47100000Y-56630000D03*
X31400000Y-54090000D03*
X47100000Y-54090000D03*
D15*
X84250000Y-18500000D03*
X84250000Y-10500000D03*
D16*
X11710000Y-31040000D03*
X11710000Y-28500000D03*
X14250000Y-31040000D03*
X14250000Y-28500000D03*
X16790000Y-31040000D03*
X16790000Y-28500000D03*
D15*
X83250000Y-42500000D03*
X83250000Y-34500000D03*
X84250000Y-66500000D03*
X84250000Y-58500000D03*
X101750000Y-42500000D03*
X101750000Y-34500000D03*
X6250000Y-55500000D03*
X6250000Y-63500000D03*
X6250000Y-41500000D03*
X6250000Y-49500000D03*
D11*
X74750000Y-47390000D03*
X69750000Y-46120000D03*
X74750000Y-44850000D03*
X69750000Y-43580000D03*
X74750000Y-42310000D03*
X69750000Y-41040000D03*
X74750000Y-39770000D03*
X69750000Y-38500000D03*
X74750000Y-37230000D03*
X69750000Y-35960000D03*
X74750000Y-34690000D03*
X69750000Y-33420000D03*
X74750000Y-32150000D03*
X69750000Y-30880000D03*
X74750000Y-29610000D03*
X74750000Y-71280000D03*
X69750000Y-70010000D03*
X74750000Y-68740000D03*
X69750000Y-67470000D03*
X74750000Y-66200000D03*
X69750000Y-64930000D03*
X74750000Y-63660000D03*
X69750000Y-62390000D03*
X74750000Y-61120000D03*
X69750000Y-59850000D03*
X74750000Y-58580000D03*
X69750000Y-57310000D03*
X74750000Y-56040000D03*
X69750000Y-54770000D03*
X74750000Y-53500000D03*
D13*
X47500000Y-34840000D03*
D17*
X47500000Y-45000000D03*
D16*
X42210000Y-28000000D03*
X44750000Y-28000000D03*
D18*
X4110000Y-8100000D03*
X4110000Y-23500000D03*
X6650000Y-8100000D03*
X6650000Y-23500000D03*
X9190000Y-8100000D03*
X9190000Y-23500000D03*
X11730000Y-8100000D03*
X11730000Y-23500000D03*
X14270000Y-8100000D03*
X14270000Y-23500000D03*
X16810000Y-8100000D03*
X16810000Y-23500000D03*
X19350000Y-8100000D03*
X19350000Y-23500000D03*
X21890000Y-8100000D03*
X21890000Y-23500000D03*
X24430000Y-8100000D03*
X24430000Y-23500000D03*
X26970000Y-8100000D03*
X26970000Y-23500000D03*
X29510000Y-8100000D03*
X29510000Y-23500000D03*
X32050000Y-8100000D03*
X32050000Y-23500000D03*
X34590000Y-8100000D03*
X34590000Y-23500000D03*
X37130000Y-8100000D03*
X37130000Y-23500000D03*
X39670000Y-8100000D03*
X39670000Y-23500000D03*
X42210000Y-8100000D03*
X42210000Y-23500000D03*
X44750000Y-8100000D03*
X44750000Y-23500000D03*
X47290000Y-8100000D03*
X47290000Y-23500000D03*
X49830000Y-8100000D03*
X49830000Y-23500000D03*
X52370000Y-8100000D03*
X52370000Y-23500000D03*
D19*
X30450000Y-28500000D03*
X35750000Y-28500000D03*
D20*
X62000000Y-55500000D03*
X50750000Y-26000000D03*
X51750000Y-53999998D03*
X63250000Y-26000000D03*
X63500000Y-51500000D03*
X78500000Y-51250000D03*
X78500000Y-48500000D03*
X26500000Y-50750000D03*
X77000000Y-37250000D03*
X77000000Y-40000000D03*
X77000000Y-15000000D03*
X77000000Y-62500000D03*
X59250000Y-57500000D03*
X47500000Y-30750000D03*
X59250000Y-30750000D03*
X59250000Y-42000000D03*
X59250000Y-35000000D03*
X59250000Y-66000000D03*
D21*
X30450000Y-28500000D02*
X30450000Y-32800000D01*
X30450000Y-32800000D02*
X30250000Y-33000000D01*
X32050000Y-23500000D02*
X32050000Y-26900000D01*
X32050000Y-26900000D02*
X30450000Y-28500000D01*
X65099999Y-52400001D02*
X62749999Y-54750001D01*
X70526640Y-52400001D02*
X65099999Y-52400001D01*
X71975010Y-53848371D02*
X70526640Y-52400001D01*
X69750000Y-62390000D02*
X71975010Y-60164990D01*
X62749999Y-54750001D02*
X62000000Y-55500000D01*
X71975010Y-60164990D02*
X71975010Y-53848371D01*
X50750000Y-49000000D02*
X50750000Y-26000000D01*
X29510000Y-11040000D02*
X26970000Y-8500000D01*
X26970000Y-8500000D02*
X26970000Y-8100000D01*
X24250000Y-35500000D02*
X13250000Y-35500000D01*
X13250000Y-35500000D02*
X6250000Y-42500000D01*
X31400000Y-69330000D02*
X6580000Y-69330000D01*
X3500000Y-66250000D02*
X3500000Y-62250000D01*
X6580000Y-69330000D02*
X3500000Y-66250000D01*
X3500000Y-62250000D02*
X9750000Y-56000000D01*
X9750000Y-56000000D02*
X9750000Y-52000000D01*
X9750000Y-52000000D02*
X6250000Y-48500000D01*
X47100000Y-54090000D02*
X51660000Y-54090000D01*
X35750000Y-36250000D02*
X35750000Y-35500000D01*
X6250000Y-48500000D02*
X6250000Y-42500000D01*
X51750000Y-53505024D02*
X51750000Y-53999998D01*
X51750000Y-50000000D02*
X51750000Y-53505024D01*
X50750000Y-49000000D02*
X51750000Y-50000000D01*
X47100000Y-54090000D02*
X46500000Y-54090000D01*
X46500000Y-54090000D02*
X44467415Y-56122585D01*
X44467415Y-56122585D02*
X44127415Y-56122585D01*
X44127415Y-56122585D02*
X42750000Y-57500000D01*
X42750000Y-57500000D02*
X42750000Y-60500000D01*
X42750000Y-60500000D02*
X33920000Y-69330000D01*
X33920000Y-69330000D02*
X31400000Y-69330000D01*
X47500000Y-45000000D02*
X50750000Y-48250000D01*
X50750000Y-48250000D02*
X50750000Y-49000000D01*
X29510000Y-23500000D02*
X29510000Y-11040000D01*
X16790000Y-28500000D02*
X15500000Y-29790000D01*
X15500000Y-29790000D02*
X15500000Y-32250000D01*
X15500000Y-32250000D02*
X18750000Y-35500000D01*
X18750000Y-35500000D02*
X23200000Y-35500000D01*
X23200000Y-35500000D02*
X24250000Y-35500000D01*
X23790000Y-35500000D02*
X24250000Y-35500000D01*
X24250000Y-35500000D02*
X30250000Y-35500000D01*
X29510000Y-23500000D02*
X29510000Y-24750000D01*
X29450001Y-34700001D02*
X30250000Y-35500000D01*
X29510000Y-24750000D02*
X29124999Y-25135001D01*
X29124999Y-25135001D02*
X29124999Y-34374999D01*
X29124999Y-34374999D02*
X29450001Y-34700001D01*
X35750000Y-35500000D02*
X30250000Y-35500000D01*
X69750000Y-14610000D02*
X72425020Y-17285020D01*
X70449999Y-37800001D02*
X69750000Y-38500000D01*
X72425020Y-17285020D02*
X72425020Y-27324980D01*
X72425020Y-27324980D02*
X71975010Y-27774990D01*
X71975010Y-27774990D02*
X71975010Y-36274990D01*
X71975010Y-36274990D02*
X70449999Y-37800001D01*
X63250000Y-26000000D02*
X70273089Y-26000000D01*
X70273089Y-26000000D02*
X70773089Y-26500000D01*
X70773089Y-26500000D02*
X72250000Y-26500000D01*
X35750000Y-28500000D02*
X35750000Y-27500000D01*
X35750000Y-27500000D02*
X34590000Y-26340000D01*
X34590000Y-26340000D02*
X34590000Y-23500000D01*
X35750000Y-33000000D02*
X35750000Y-31950000D01*
X35750000Y-31950000D02*
X35750000Y-28500000D01*
X39670000Y-56580000D02*
X39670000Y-24750000D01*
X31400000Y-64250000D02*
X32000000Y-64250000D01*
X32000000Y-64250000D02*
X39670000Y-56580000D01*
X39670000Y-24750000D02*
X39670000Y-23500000D01*
X38500000Y-26120000D02*
X38500000Y-45840000D01*
X31400000Y-54090000D02*
X31400000Y-52940000D01*
X31400000Y-52940000D02*
X38500000Y-45840000D01*
X38500000Y-26120000D02*
X37130000Y-24750000D01*
X37130000Y-24750000D02*
X37130000Y-23500000D01*
D22*
X84250000Y-17500000D02*
X80750000Y-17500000D01*
X80750000Y-17500000D02*
X74750000Y-23500000D01*
X84250000Y-11500000D02*
X80530000Y-11500000D01*
X80530000Y-11500000D02*
X74750000Y-5720000D01*
X74750000Y-23500000D02*
X74750000Y-22510051D01*
X74750000Y-22510051D02*
X74750000Y-21220001D01*
X74750000Y-5720000D02*
X74750000Y-6709949D01*
X74750000Y-6709949D02*
X74750000Y-7999999D01*
X84250000Y-11500000D02*
X84250000Y-17500000D01*
D21*
X11710000Y-31040000D02*
X13000000Y-29750000D01*
X13000000Y-29750000D02*
X14903590Y-29750000D01*
X14903590Y-29750000D02*
X15500000Y-29153590D01*
X17500000Y-27000000D02*
X18500000Y-26000000D01*
X15500000Y-29153590D02*
X15500000Y-27750000D01*
X15500000Y-27750000D02*
X16250000Y-27000000D01*
X18500000Y-24750000D02*
X19350000Y-23900000D01*
X16250000Y-27000000D02*
X17500000Y-27000000D01*
X18500000Y-26000000D02*
X18500000Y-24750000D01*
X19350000Y-23900000D02*
X19350000Y-23500000D01*
X29510000Y-8100000D02*
X29100000Y-8100000D01*
X29100000Y-8100000D02*
X27500000Y-6500000D01*
X27500000Y-6500000D02*
X25630000Y-6500000D01*
X25630000Y-6500000D02*
X24430000Y-7700000D01*
X24430000Y-7700000D02*
X24430000Y-8100000D01*
X25419990Y-10339990D02*
X24430000Y-9350000D01*
X24430000Y-9350000D02*
X24430000Y-8100000D01*
X10948001Y-29261999D02*
X7948001Y-29261999D01*
X7948001Y-29261999D02*
X2250000Y-34960000D01*
X6250000Y-56500000D02*
X2250000Y-52500000D01*
X2250000Y-52500000D02*
X2250000Y-34960000D01*
X10948001Y-29261999D02*
X11710000Y-28500000D01*
X25419990Y-10339990D02*
X25419990Y-21549990D01*
X11710000Y-28500000D02*
X12471999Y-27738001D01*
X26970000Y-23100000D02*
X26970000Y-23500000D01*
X12471999Y-27738001D02*
X12471999Y-26278001D01*
X12471999Y-26278001D02*
X13000000Y-25750000D01*
X13000000Y-25750000D02*
X13000000Y-22500000D01*
X13000000Y-22500000D02*
X13950010Y-21549990D01*
X13950010Y-21549990D02*
X25419990Y-21549990D01*
X25419990Y-21549990D02*
X26970000Y-23100000D01*
X26970000Y-23500000D02*
X26970000Y-30280000D01*
X26970000Y-30280000D02*
X24250000Y-33000000D01*
X21890000Y-23500000D02*
X21890000Y-23100000D01*
X10250000Y-31500000D02*
X11250000Y-32500000D01*
X13488001Y-31801999D02*
X14250000Y-31040000D01*
X21890000Y-23100000D02*
X20790000Y-22000000D01*
X20790000Y-22000000D02*
X16250000Y-22000000D01*
X16250000Y-22000000D02*
X15500000Y-22750000D01*
X11250000Y-32500000D02*
X12790000Y-32500000D01*
X15500000Y-22750000D02*
X15500000Y-24750000D01*
X12363590Y-29750000D02*
X11250000Y-29750000D01*
X15500000Y-24750000D02*
X13000000Y-27250000D01*
X13000000Y-27250000D02*
X13000000Y-29113590D01*
X13000000Y-29113590D02*
X12363590Y-29750000D01*
X11250000Y-29750000D02*
X10250000Y-30750000D01*
X10250000Y-30750000D02*
X10250000Y-31500000D01*
X12790000Y-32500000D02*
X13488001Y-31801999D01*
X14250000Y-27422370D02*
X16810000Y-24862370D01*
X14250000Y-28500000D02*
X14250000Y-27422370D01*
X16810000Y-24750000D02*
X16810000Y-23500000D01*
X16810000Y-24862370D02*
X16810000Y-24750000D01*
X19210000Y-31040000D02*
X24430000Y-25820000D01*
X24430000Y-25820000D02*
X24430000Y-23500000D01*
X16790000Y-31040000D02*
X19210000Y-31040000D01*
D22*
X83250000Y-41500000D02*
X80640000Y-41500000D01*
X80640000Y-41500000D02*
X74750000Y-47390000D01*
X83250000Y-35500000D02*
X80640000Y-35500000D01*
X80640000Y-35500000D02*
X74750000Y-29610000D01*
X74750000Y-47390000D02*
X74750000Y-45110001D01*
X74750000Y-29610000D02*
X74750000Y-31889999D01*
X83250000Y-35500000D02*
X83250000Y-41500000D01*
X84250000Y-65500000D02*
X80530000Y-65500000D01*
X80530000Y-65500000D02*
X74750000Y-71280000D01*
X84250000Y-59500000D02*
X80750000Y-59500000D01*
X80750000Y-59500000D02*
X74750000Y-53500000D01*
X74750000Y-53500000D02*
X74750000Y-55779999D01*
X74750000Y-71280000D02*
X74750000Y-69000001D01*
X84250000Y-59500000D02*
X84250000Y-65500000D01*
X69750000Y-22230000D02*
X66024989Y-18504989D01*
X64754989Y-18504989D02*
X60750000Y-14500000D01*
X66024989Y-18504989D02*
X64754989Y-18504989D01*
X60750000Y-14500000D02*
X55750000Y-14500000D01*
X55750000Y-14500000D02*
X55750000Y-38500000D01*
X69750000Y-6990000D02*
X66024989Y-10715011D01*
X66024989Y-10715011D02*
X64034989Y-10715011D01*
X64034989Y-10715011D02*
X60750000Y-14000000D01*
X55750000Y-38500000D02*
X60250000Y-38500000D01*
X60250000Y-38500000D02*
X64144989Y-42394989D01*
X64144989Y-42394989D02*
X66024989Y-42394989D01*
X66024989Y-42394989D02*
X69050001Y-45420001D01*
X69050001Y-45420001D02*
X69750000Y-46120000D01*
X69750000Y-30880000D02*
X66024989Y-34605011D01*
X66024989Y-34605011D02*
X64644989Y-34605011D01*
X64644989Y-34605011D02*
X60750000Y-38500000D01*
X55750000Y-62500000D02*
X55750000Y-69000000D01*
X55750000Y-69000000D02*
X61750000Y-75000000D01*
X61750000Y-75000000D02*
X87750000Y-75000000D01*
X87750000Y-75000000D02*
X101750000Y-61000000D01*
X101750000Y-61000000D02*
X101750000Y-41500000D01*
X55750000Y-38500000D02*
X55750000Y-62500000D01*
X66024989Y-66284989D02*
X69050001Y-69310001D01*
X55750000Y-62500000D02*
X60750000Y-62500000D01*
X60750000Y-62500000D02*
X64534989Y-66284989D01*
X64534989Y-66284989D02*
X66024989Y-66284989D01*
X69050001Y-69310001D02*
X69750000Y-70010000D01*
X69750000Y-54770000D02*
X66024989Y-58495011D01*
X66024989Y-58495011D02*
X64254989Y-58495011D01*
X64254989Y-58495011D02*
X60750000Y-62000000D01*
X69750000Y-6990000D02*
X69750000Y-9269999D01*
X69750000Y-22230000D02*
X69750000Y-19950001D01*
X69750000Y-46120000D02*
X69750000Y-43840001D01*
X69750000Y-30880000D02*
X69750000Y-33159999D01*
X69750000Y-70010000D02*
X69750000Y-67730001D01*
X69750000Y-54770000D02*
X69750000Y-55759949D01*
X69750000Y-55759949D02*
X69750000Y-57049999D01*
X101750000Y-35500000D02*
X101750000Y-41500000D01*
D23*
X77017057Y-49750000D02*
X65250000Y-49750000D01*
X65250000Y-49750000D02*
X64249999Y-50750001D01*
X64249999Y-50750001D02*
X63500000Y-51500000D01*
X77750001Y-50500001D02*
X78500000Y-51250000D01*
X77017057Y-49767057D02*
X77750001Y-50500001D01*
X77017057Y-49750000D02*
X77017057Y-49767057D01*
X77750001Y-49249999D02*
X78500000Y-48500000D01*
X77250000Y-49750000D02*
X77750001Y-49249999D01*
X77017057Y-49750000D02*
X77250000Y-49750000D01*
X77000000Y-62500000D02*
X77000000Y-63950000D01*
X26200001Y-51049999D02*
X26500000Y-50750000D01*
X14750000Y-62500000D02*
X26200001Y-51049999D01*
X6250000Y-62500000D02*
X14750000Y-62500000D01*
X77000000Y-37250000D02*
X77000000Y-40000000D01*
X77000000Y-40060000D02*
X77000000Y-40000000D01*
X74750000Y-42310000D02*
X77000000Y-40060000D01*
X77000000Y-15000000D02*
X77000000Y-16170000D01*
X77000000Y-16170000D02*
X74750000Y-18420000D01*
X74750000Y-66200000D02*
X77000000Y-63950000D01*
D21*
X59250000Y-51500000D02*
X59250000Y-56439340D01*
X61750000Y-49000000D02*
X59250000Y-51500000D01*
X59250000Y-56439340D02*
X59250000Y-57500000D01*
X47500000Y-30750000D02*
X47500000Y-25750000D01*
X46000000Y-22500000D02*
X45500000Y-22000000D01*
X23540010Y-6049990D02*
X21890000Y-7700000D01*
X47500000Y-25750000D02*
X46000000Y-24250000D01*
X46000000Y-24250000D02*
X46000000Y-22500000D01*
X45500000Y-22000000D02*
X43750000Y-22000000D01*
X43750000Y-22000000D02*
X30750000Y-9000000D01*
X30750000Y-7000000D02*
X29799990Y-6049990D01*
X30750000Y-9000000D02*
X30750000Y-7000000D01*
X29799990Y-6049990D02*
X23540010Y-6049990D01*
X21890000Y-7700000D02*
X21890000Y-8100000D01*
X47500000Y-30750000D02*
X47500000Y-34840000D01*
X59250000Y-30750000D02*
X59250000Y-35000000D01*
X59250000Y-24000000D02*
X59250000Y-30750000D01*
X69750000Y-17150000D02*
X70739949Y-17150000D01*
X71975010Y-23151629D02*
X70671629Y-24455010D01*
X66205010Y-24455010D02*
X63750000Y-22000000D01*
X70739949Y-17150000D02*
X71975010Y-18385061D01*
X71975010Y-18385061D02*
X71975010Y-23151629D01*
X70671629Y-24455010D02*
X66205010Y-24455010D01*
X63750000Y-22000000D02*
X61250000Y-22000000D01*
X61250000Y-22000000D02*
X59250000Y-24000000D01*
X59250000Y-46500000D02*
X61750000Y-49000000D01*
X59250000Y-42000000D02*
X59250000Y-46500000D01*
X69750000Y-41040000D02*
X70739949Y-41040000D01*
X70739949Y-41040000D02*
X71975010Y-42275061D01*
X71975010Y-42275061D02*
X71975010Y-47041629D01*
X71975010Y-47041629D02*
X70016639Y-49000000D01*
X70016639Y-49000000D02*
X61750000Y-49000000D01*
X69750000Y-64930000D02*
X70739949Y-64930000D01*
X70739949Y-64930000D02*
X71975010Y-66165061D01*
X71975010Y-66165061D02*
X71975010Y-70931629D01*
X71975010Y-70931629D02*
X70671629Y-72235010D01*
X70671629Y-72235010D02*
X65485010Y-72235010D01*
X65485010Y-72235010D02*
X59250000Y-66000000D01*
X74750000Y-10800000D02*
X73760051Y-10800000D01*
X73760051Y-10800000D02*
X71975010Y-9014959D01*
X70671629Y-4764990D02*
X12735010Y-4764990D01*
X71975010Y-9014959D02*
X71975010Y-6068371D01*
X71975010Y-6068371D02*
X70671629Y-4764990D01*
X10500000Y-9000000D02*
X9000000Y-10500000D01*
X12735010Y-4764990D02*
X10500000Y-7000000D01*
X10500000Y-7000000D02*
X10500000Y-9000000D01*
X5500000Y-10500000D02*
X4110000Y-9110000D01*
X9000000Y-10500000D02*
X5500000Y-10500000D01*
X4110000Y-9110000D02*
X4110000Y-8100000D01*
X69750000Y-12070000D02*
X71020000Y-13340000D01*
X71020000Y-13340000D02*
X74750000Y-13340000D01*
X74750000Y-13340000D02*
X74750000Y-15880000D01*
X74750000Y-10800000D02*
X74750000Y-13340000D01*
X86975001Y-9191999D02*
X81277992Y-3494990D01*
X81277992Y-3494990D02*
X10855010Y-3494990D01*
X10855010Y-3494990D02*
X6650000Y-7700000D01*
X6650000Y-7700000D02*
X6650000Y-8100000D01*
X81057992Y-25725010D02*
X86975001Y-19808001D01*
X72524990Y-28688371D02*
X75488351Y-25725010D01*
X75488351Y-25725010D02*
X81057992Y-25725010D01*
X74750000Y-34690000D02*
X73760051Y-34690000D01*
X86975001Y-19808001D02*
X86975001Y-9191999D01*
X72524990Y-33454939D02*
X72524990Y-28688371D01*
X73760051Y-34690000D02*
X72524990Y-33454939D01*
X69750000Y-35960000D02*
X68250000Y-37460000D01*
X68250000Y-37460000D02*
X68250000Y-39000000D01*
X68250000Y-39000000D02*
X69020000Y-39770000D01*
X69020000Y-39770000D02*
X73760051Y-39770000D01*
X73760051Y-39770000D02*
X74750000Y-39770000D01*
X74750000Y-37230000D02*
X74750000Y-39770000D01*
X74750000Y-34690000D02*
X74750000Y-37230000D01*
X5500000Y-6750000D02*
X9205020Y-3044980D01*
X80500000Y-52750000D02*
X77146639Y-52750000D01*
X9190000Y-8100000D02*
X9190000Y-8500000D01*
X9190000Y-8500000D02*
X7640010Y-10049990D01*
X86794980Y-3044980D02*
X89750000Y-6000000D01*
X6549990Y-10049990D02*
X5500000Y-9000000D01*
X7640010Y-10049990D02*
X6549990Y-10049990D01*
X72524990Y-57344939D02*
X73760051Y-58580000D01*
X72524990Y-52578371D02*
X72524990Y-57344939D01*
X5500000Y-9000000D02*
X5500000Y-6750000D01*
X9205020Y-3044980D02*
X86794980Y-3044980D01*
X89750000Y-6000000D02*
X89750000Y-43500000D01*
X77146639Y-52750000D02*
X75671629Y-51274990D01*
X89750000Y-43500000D02*
X80500000Y-52750000D01*
X75671629Y-51274990D02*
X73828371Y-51274990D01*
X73828371Y-51274990D02*
X72524990Y-52578371D01*
X73760051Y-58580000D02*
X74750000Y-58580000D01*
X69750000Y-59850000D02*
X68250000Y-61350000D01*
X68250000Y-61350000D02*
X68250000Y-63000000D01*
X68250000Y-63000000D02*
X68750000Y-63500000D01*
X68750000Y-63500000D02*
X72370000Y-63500000D01*
X72370000Y-63500000D02*
X74050001Y-61819999D01*
X74050001Y-61819999D02*
X74750000Y-61120000D01*
X74750000Y-63660000D02*
X74750000Y-61120000D01*
X74750000Y-58580000D02*
X74750000Y-61120000D01*
X42210000Y-23500000D02*
X42210000Y-28000000D01*
X44750000Y-23500000D02*
X44750000Y-28000000D01*
M02*
